# xmcd
#
# Track frame offsets: 
#        150
#        18757
#        42661
#        59504
#        76159
#        95773
#        117531
#        133297
#        151973
#        174927
#        194601
#        213440
#        238709
#        259930
#        279623
#
# Disc length: 4004 seconds
#
# Revision: 1
# Processed by: cddbd v1.5.2PL0 Copyright (c) Steve Scherf et al.
# Submitted via: ExactAudioCopy v1.0b3
#
DISCID=de0fa20f
DTITLE=Various Artist - H2T - H2Tet 2008
DYEAR=2007
DGENRE=Pop
TTITLE0=Wepro Family - Ngay Xuan Long Phung Sum Vay (Quang Huy)
TTITLE1=Tu Minh Hy - Tat Nuoc Dau Dinh (Dan Ca)
TTITLE2=Toc Tien - Mua Xuan Xanh (Mai Thu Son)
TTITLE3=Hai Yen and Chung Thanh Phong - Giac Mo Mua Xuan (Yen Lam)
TTITLE4=Dan Truong - Tet Den (Nguyen Ngoc Thien)
TTITLE5=Thanh Thao - Tet Nguyen Dan (Phuong Uyen)
TTITLE6=Dang Khoi - Co Nhau Mua Xuan (Huy Tuan)
TTITLE7=Anh Khang - Tim Den Ngay Mai (Anh Khang)
TTITLE8=Hien Thuc - Goi Ten Anh (Pham Khanh Hung)
TTITLE9=Ha Anh Tuan - Lam Sao Noi Yeu Em (Vo Thien Thanh)
TTITLE10=Hoa T. Tran - Hoa Co Mua Xuan (Bao Chan)
TTITLE11=Thuy Chi and Tang Nhat Tue - Phut Giao Thua Lang Le (Anh Quan, 
TTITLE11=Huy Tuan)
TTITLE12=Luu Huong Giang - De Anh Cu Ngu Quen (Ho Hoai Anh)
TTITLE13=Tim and Minh Hang - Mot Vong Trai Dat (Nhat Trung)
TTITLE14=Phuong Anh - Trai Tim Luon Gan Nhau (Huy Tuan)
EXTD=
EXTT0=
EXTT1=
EXTT2=
EXTT3=
EXTT4=
EXTT5=
EXTT6=
EXTT7=
EXTT8=
EXTT9=
EXTT10=
EXTT11=
EXTT12=
EXTT13=
EXTT14=
PLAYORDER=
